<?xml version="1.0" encoding="utf-8"?>
<!-- Generator: Adobe Illustrator 16.0.0, SVG Export Plug-In . SVG Version: 6.00 Build 0)  -->
<!DOCTYPE svg PUBLIC "-//W3C//DTD SVG 1.1//EN" "http://www.w3.org/Graphics/SVG/1.1/DTD/svg11.dtd">
<svg version="1.1" id="Capa_1" xmlns="http://www.w3.org/2000/svg" xmlns:xlink="http://www.w3.org/1999/xlink" x="0px" y="0px"
	 width="243.251px" height="50.526px" viewBox="0 0 243.251 50.526" enable-background="new 0 0 243.251 50.526"
	 xml:space="preserve">
<g>
	<rect x="47.214" y="14.1" width="4.119" height="20.268"/>
	<polygon points="59.737,14.1 69.624,34.367 72.837,34.367 82.723,14.1 78.253,14.1 71.395,29.26 64.536,14.1 	"/>
	<polygon points="90.879,14.1 90.879,34.367 108.181,34.367 108.181,30.968 95.061,30.968 95.061,25.777 105.462,25.777 
		105.462,22.441 95.061,22.441 95.061,17.498 108.181,17.498 108.181,14.1 	"/>
	<polygon points="118.562,34.367 122.269,34.367 122.269,19.744 134.667,34.367 138.993,34.367 138.993,14.1 135.286,14.1 
		135.286,28.807 123.092,14.1 118.562,14.1 	"/>
	<polygon points="179.033,14.1 183.111,14.1 183.111,22.441 194.914,22.441 194.914,14.1 198.929,14.1 198.929,34.367 
		194.914,34.367 194.914,25.777 183.111,25.777 183.111,34.367 179.033,34.367 	"/>
	<polygon points="206.159,14.1 211.349,14.1 217.899,22.669 224.51,14.1 229.268,14.1 219.876,25.777 219.876,34.367 
		215.798,34.367 215.798,25.777 	"/>
	<path d="M169.333,15.83c0,0-3.399-2.41-8.795-2.41c-5.396,0-12.214,2.575-12.214,10.813s6.528,10.751,12.378,10.751
		s8.631-2.266,8.631-2.266v-3.751c0,0-3.244,2.31-8.62,2.31s-8.002-3.049-8.002-6.797c0-3.749,2.39-7.354,7.909-7.354
		s8.713,2.657,8.713,2.657V15.83z"/>
	<path d="M26.453,31.277L26.453,31.277c-8.733,0-8.136-7.426-8.136-7.426c0-3.595,2.915-6.725,8.136-6.725
		c5.222,0,8.733,2.287,8.733,2.287v-3.894c-2.872-1.977-8.733-2.101-8.733-2.101l0,0c-12.803,0-12.468,10.35-12.468,10.35
		c0,8.6,6.711,11.215,12.427,11.215c5.715,0,9.516-1.606,9.516-1.606V23.183H25.052v3.337h6.982v4.078
		C32.035,30.598,30.902,31.277,26.453,31.277"/>
</g>
</svg>
